<mxfile host="app.diagrams.net" modified="2022-05-25T12:56:04.996Z" agent="5.0 (Windows NT 10.0; Win64; x64) AppleWebKit/537.36 (KHTML, like Gecko) Chrome/101.0.4951.67 Safari/537.36" etag="LWQ7u7IHsckSsj58mYhP" version="18.1.2" type="github">
  <diagram name="Page-1" id="edf60f1a-56cd-e834-aa8a-f176f3a09ee4">
    <mxGraphModel dx="1422" dy="774" grid="0" gridSize="10" guides="1" tooltips="1" connect="1" arrows="1" fold="1" page="1" pageScale="1" pageWidth="1100" pageHeight="850" background="none" math="0" shadow="0">
      <root>
        <mxCell id="0" />
        <mxCell id="1" parent="0" />
        <mxCell id="60e70716793133e9-31" style="edgeStyle=orthogonalEdgeStyle;rounded=0;html=1;labelBackgroundColor=none;startSize=5;endArrow=classicThin;endFill=1;endSize=5;jettySize=auto;orthogonalLoop=1;strokeWidth=1;fontFamily=Verdana;fontSize=8" parent="1" source="60e70716793133e9-2" target="60e70716793133e9-5" edge="1">
          <mxGeometry relative="1" as="geometry" />
        </mxCell>
        <mxCell id="60e70716793133e9-2" value="Determine need to&amp;nbsp;&lt;div&gt;replenish value-add&amp;nbsp;&lt;/div&gt;&lt;div&gt;stock&lt;/div&gt;" style="shape=trapezoid;whiteSpace=wrap;html=1;rounded=0;shadow=1;labelBackgroundColor=none;strokeWidth=1;fontFamily=Verdana;fontSize=8;align=center;flipV=1;" parent="1" vertex="1">
          <mxGeometry x="100" y="120" width="120" height="60" as="geometry" />
        </mxCell>
        <mxCell id="60e70716793133e9-32" style="edgeStyle=orthogonalEdgeStyle;rounded=0;html=1;labelBackgroundColor=none;startSize=5;endArrow=classicThin;endFill=1;endSize=5;jettySize=auto;orthogonalLoop=1;strokeWidth=1;fontFamily=Verdana;fontSize=8" parent="1" source="60e70716793133e9-4" target="60e70716793133e9-5" edge="1">
          <mxGeometry relative="1" as="geometry" />
        </mxCell>
        <mxCell id="60e70716793133e9-4" value="Order a product that&lt;div&gt;requires value-add processing&lt;/div&gt;" style="rounded=0;whiteSpace=wrap;html=1;shadow=1;labelBackgroundColor=none;strokeWidth=1;fontFamily=Verdana;fontSize=8;align=center;" parent="1" vertex="1">
          <mxGeometry x="290" y="120" width="120" height="60" as="geometry" />
        </mxCell>
        <mxCell id="60e70716793133e9-33" value="Yes" style="edgeStyle=orthogonalEdgeStyle;rounded=0;html=1;labelBackgroundColor=none;startSize=5;endArrow=classicThin;endFill=1;endSize=5;jettySize=auto;orthogonalLoop=1;strokeWidth=1;fontFamily=Verdana;fontSize=8" parent="1" source="60e70716793133e9-5" target="60e70716793133e9-7" edge="1">
          <mxGeometry x="-0.7778" y="10" relative="1" as="geometry">
            <mxPoint as="offset" />
          </mxGeometry>
        </mxCell>
        <mxCell id="60e70716793133e9-37" value="No" style="edgeStyle=orthogonalEdgeStyle;rounded=0;html=1;labelBackgroundColor=none;startSize=5;endArrow=classicThin;endFill=1;endSize=5;jettySize=auto;orthogonalLoop=1;strokeWidth=1;fontFamily=Verdana;fontSize=8" parent="1" source="60e70716793133e9-5" target="60e70716793133e9-9" edge="1">
          <mxGeometry x="-0.5" y="10" relative="1" as="geometry">
            <mxPoint as="offset" />
          </mxGeometry>
        </mxCell>
        <mxCell id="60e70716793133e9-5" value="Frequently&lt;div&gt;performed&lt;/div&gt;&lt;div&gt;process?&lt;/div&gt;" style="rhombus;whiteSpace=wrap;html=1;rounded=0;shadow=1;labelBackgroundColor=none;strokeWidth=1;fontFamily=Verdana;fontSize=8;align=center;" parent="1" vertex="1">
          <mxGeometry x="200" y="220" width="100" height="60" as="geometry" />
        </mxCell>
        <mxCell id="60e70716793133e9-34" value="Yes" style="edgeStyle=orthogonalEdgeStyle;rounded=0;html=1;labelBackgroundColor=none;startSize=5;endArrow=classicThin;endFill=1;endSize=5;jettySize=auto;orthogonalLoop=1;strokeWidth=1;fontFamily=Verdana;fontSize=8" parent="1" source="60e70716793133e9-7" target="60e70716793133e9-8" edge="1">
          <mxGeometry x="-0.6667" y="10" relative="1" as="geometry">
            <mxPoint as="offset" />
          </mxGeometry>
        </mxCell>
        <mxCell id="60e70716793133e9-35" value="No" style="edgeStyle=orthogonalEdgeStyle;rounded=0;html=1;labelBackgroundColor=none;startSize=5;endArrow=classicThin;endFill=1;endSize=5;jettySize=auto;orthogonalLoop=1;strokeWidth=1;fontFamily=Verdana;fontSize=8" parent="1" source="60e70716793133e9-7" target="60e70716793133e9-10" edge="1">
          <mxGeometry x="-1" y="-10" relative="1" as="geometry">
            <mxPoint x="440" y="300" as="targetPoint" />
            <Array as="points" />
            <mxPoint as="offset" />
          </mxGeometry>
        </mxCell>
        <mxCell id="60e70716793133e9-7" value="New&amp;nbsp;&lt;div&gt;template&amp;nbsp;&lt;/div&gt;&lt;div&gt;needed?&lt;/div&gt;" style="rhombus;whiteSpace=wrap;html=1;rounded=0;shadow=1;labelBackgroundColor=none;strokeWidth=1;fontFamily=Verdana;fontSize=8;align=center;" parent="1" vertex="1">
          <mxGeometry x="390" y="220" width="100" height="60" as="geometry" />
        </mxCell>
        <mxCell id="60e70716793133e9-36" style="edgeStyle=orthogonalEdgeStyle;rounded=0;html=1;labelBackgroundColor=none;startSize=5;endArrow=classicThin;endFill=1;endSize=5;jettySize=auto;orthogonalLoop=1;strokeWidth=1;fontFamily=Verdana;fontSize=8" parent="1" source="60e70716793133e9-8" target="60e70716793133e9-10" edge="1">
          <mxGeometry relative="1" as="geometry">
            <Array as="points">
              <mxPoint x="600" y="290" />
              <mxPoint x="440" y="290" />
            </Array>
          </mxGeometry>
        </mxCell>
        <mxCell id="60e70716793133e9-8" value="Create work&amp;nbsp;&lt;div&gt;order template&lt;/div&gt;" style="rounded=1;whiteSpace=wrap;html=1;shadow=1;labelBackgroundColor=none;strokeWidth=1;fontFamily=Verdana;fontSize=8;align=center;" parent="1" vertex="1">
          <mxGeometry x="550" y="230" width="100" height="40" as="geometry" />
        </mxCell>
        <mxCell id="60e70716793133e9-38" style="edgeStyle=orthogonalEdgeStyle;rounded=0;html=1;labelBackgroundColor=none;startSize=5;endArrow=classicThin;endFill=1;endSize=5;jettySize=auto;orthogonalLoop=1;strokeWidth=1;fontFamily=Verdana;fontSize=8" parent="1" source="60e70716793133e9-9" target="60e70716793133e9-11" edge="1">
          <mxGeometry relative="1" as="geometry" />
        </mxCell>
        <mxCell id="60e70716793133e9-9" value="Create a work order" style="whiteSpace=wrap;html=1;rounded=0;shadow=1;labelBackgroundColor=none;strokeWidth=1;fontFamily=Verdana;fontSize=8;align=center;" parent="1" vertex="1">
          <mxGeometry x="190" y="320" width="120" height="40" as="geometry" />
        </mxCell>
        <mxCell id="60e70716793133e9-39" style="edgeStyle=orthogonalEdgeStyle;rounded=0;html=1;labelBackgroundColor=none;startSize=5;endArrow=classicThin;endFill=1;endSize=5;jettySize=auto;orthogonalLoop=1;strokeWidth=1;fontFamily=Verdana;fontSize=8" parent="1" source="60e70716793133e9-10" target="60e70716793133e9-12" edge="1">
          <mxGeometry relative="1" as="geometry" />
        </mxCell>
        <mxCell id="60e70716793133e9-10" value="Copy template&amp;nbsp;&lt;div&gt;to work order&lt;/div&gt;" style="whiteSpace=wrap;html=1;rounded=0;shadow=1;labelBackgroundColor=none;strokeWidth=1;fontFamily=Verdana;fontSize=8;align=center;" parent="1" vertex="1">
          <mxGeometry x="380" y="320" width="120" height="40" as="geometry" />
        </mxCell>
        <mxCell id="60e70716793133e9-41" style="edgeStyle=orthogonalEdgeStyle;rounded=0;html=1;labelBackgroundColor=none;startSize=5;endArrow=classicThin;endFill=1;endSize=5;jettySize=auto;orthogonalLoop=1;strokeWidth=1;fontFamily=Verdana;fontSize=8" parent="1" source="60e70716793133e9-11" target="60e70716793133e9-13" edge="1">
          <mxGeometry relative="1" as="geometry" />
        </mxCell>
        <mxCell id="60e70716793133e9-11" value="Add materials to work order processes" style="whiteSpace=wrap;html=1;rounded=0;shadow=1;labelBackgroundColor=none;strokeWidth=1;fontFamily=Verdana;fontSize=8;align=center;spacing=6;" parent="1" vertex="1">
          <mxGeometry x="190" y="410" width="120" height="40" as="geometry" />
        </mxCell>
        <mxCell id="60e70716793133e9-40" style="edgeStyle=orthogonalEdgeStyle;rounded=0;html=1;labelBackgroundColor=none;startSize=5;endArrow=classicThin;endFill=1;endSize=5;jettySize=auto;orthogonalLoop=1;strokeWidth=1;fontFamily=Verdana;fontSize=8" parent="1" source="60e70716793133e9-12" target="60e70716793133e9-13" edge="1">
          <mxGeometry relative="1" as="geometry" />
        </mxCell>
        <mxCell id="60e70716793133e9-12" value="Adjust material quantities if needed" style="whiteSpace=wrap;html=1;rounded=0;shadow=1;labelBackgroundColor=none;strokeWidth=1;fontFamily=Verdana;fontSize=8;align=center;spacing=6;" parent="1" vertex="1">
          <mxGeometry x="380" y="410" width="120" height="40" as="geometry" />
        </mxCell>
        <mxCell id="60e70716793133e9-42" style="edgeStyle=orthogonalEdgeStyle;rounded=0;html=1;labelBackgroundColor=none;startSize=5;endArrow=classicThin;endFill=1;endSize=5;jettySize=auto;orthogonalLoop=1;strokeWidth=1;fontFamily=Verdana;fontSize=8" parent="1" source="60e70716793133e9-13" target="60e70716793133e9-14" edge="1">
          <mxGeometry relative="1" as="geometry" />
        </mxCell>
        <mxCell id="60e70716793133e9-13" value="Monitor work orders" style="whiteSpace=wrap;html=1;rounded=0;shadow=1;labelBackgroundColor=none;strokeWidth=1;fontFamily=Verdana;fontSize=8;align=center;" parent="1" vertex="1">
          <mxGeometry x="280" y="500" width="120" height="40" as="geometry" />
        </mxCell>
        <mxCell id="60e70716793133e9-43" value="Yes" style="edgeStyle=orthogonalEdgeStyle;rounded=0;html=1;labelBackgroundColor=none;startSize=5;endArrow=classicThin;endFill=1;endSize=5;jettySize=auto;orthogonalLoop=1;strokeWidth=1;fontFamily=Verdana;fontSize=8" parent="1" source="60e70716793133e9-14" target="60e70716793133e9-15" edge="1">
          <mxGeometry x="-0.6667" y="10" relative="1" as="geometry">
            <mxPoint as="offset" />
          </mxGeometry>
        </mxCell>
        <mxCell id="60e70716793133e9-44" value="No" style="edgeStyle=orthogonalEdgeStyle;rounded=0;html=1;labelBackgroundColor=none;startSize=5;endArrow=classicThin;endFill=1;endSize=5;jettySize=auto;orthogonalLoop=1;strokeWidth=1;fontFamily=Verdana;fontSize=8" parent="1" source="60e70716793133e9-14" target="60e70716793133e9-16" edge="1">
          <mxGeometry x="-0.5" y="-10" relative="1" as="geometry">
            <mxPoint as="offset" />
          </mxGeometry>
        </mxCell>
        <mxCell id="60e70716793133e9-14" value="Material&amp;nbsp;&lt;div&gt;quantities not&amp;nbsp;&lt;/div&gt;&lt;div&gt;in stock?&lt;/div&gt;" style="rhombus;whiteSpace=wrap;html=1;rounded=0;shadow=1;labelBackgroundColor=none;strokeWidth=1;fontFamily=Verdana;fontSize=8;align=center;" parent="1" vertex="1">
          <mxGeometry x="290" y="570" width="100" height="60" as="geometry" />
        </mxCell>
        <mxCell id="60e70716793133e9-45" style="edgeStyle=orthogonalEdgeStyle;rounded=0;html=1;labelBackgroundColor=none;startSize=5;endArrow=classicThin;endFill=1;endSize=5;jettySize=auto;orthogonalLoop=1;strokeWidth=1;fontFamily=Verdana;fontSize=8" parent="1" source="60e70716793133e9-15" target="60e70716793133e9-16" edge="1">
          <mxGeometry relative="1" as="geometry">
            <Array as="points">
              <mxPoint x="510" y="650" />
              <mxPoint x="340" y="650" />
            </Array>
          </mxGeometry>
        </mxCell>
        <mxCell id="60e70716793133e9-15" value="Procedure or&amp;nbsp;&lt;div&gt;transfer materials&lt;/div&gt;" style="whiteSpace=wrap;html=1;rounded=0;shadow=1;labelBackgroundColor=none;strokeWidth=1;fontFamily=Verdana;fontSize=8;align=center;" parent="1" vertex="1">
          <mxGeometry x="450" y="580" width="120" height="40" as="geometry" />
        </mxCell>
        <mxCell id="60e70716793133e9-46" style="edgeStyle=orthogonalEdgeStyle;rounded=0;html=1;labelBackgroundColor=none;startSize=5;endArrow=classicThin;endFill=1;endSize=5;jettySize=auto;orthogonalLoop=1;strokeWidth=1;fontFamily=Verdana;fontSize=8" parent="1" source="60e70716793133e9-16" target="60e70716793133e9-17" edge="1">
          <mxGeometry relative="1" as="geometry" />
        </mxCell>
        <mxCell id="60e70716793133e9-16" value="Change status to&lt;div&gt;In Process&lt;/div&gt;" style="whiteSpace=wrap;html=1;rounded=0;shadow=1;labelBackgroundColor=none;strokeWidth=1;fontFamily=Verdana;fontSize=8;align=center;" parent="1" vertex="1">
          <mxGeometry x="280" y="670" width="120" height="40" as="geometry" />
        </mxCell>
        <mxCell id="60e70716793133e9-47" value="Yes" style="edgeStyle=orthogonalEdgeStyle;rounded=0;html=1;labelBackgroundColor=none;startSize=5;endArrow=classicThin;endFill=1;endSize=5;jettySize=auto;orthogonalLoop=1;strokeWidth=1;fontFamily=Verdana;fontSize=8" parent="1" source="60e70716793133e9-17" target="60e70716793133e9-18" edge="1">
          <mxGeometry x="-0.6667" y="10" relative="1" as="geometry">
            <mxPoint as="offset" />
          </mxGeometry>
        </mxCell>
        <mxCell id="60e70716793133e9-50" value="No" style="edgeStyle=orthogonalEdgeStyle;rounded=0;html=1;labelBackgroundColor=none;startSize=5;endArrow=classicThin;endFill=1;endSize=5;jettySize=auto;orthogonalLoop=1;strokeWidth=1;fontFamily=Verdana;fontSize=8" parent="1" source="60e70716793133e9-17" target="60e70716793133e9-19" edge="1">
          <mxGeometry x="-1" y="-10" relative="1" as="geometry">
            <mxPoint as="offset" />
          </mxGeometry>
        </mxCell>
        <mxCell id="60e70716793133e9-17" value="Step&amp;nbsp;&lt;div&gt;performed by&amp;nbsp;&lt;/div&gt;&lt;div&gt;outside&amp;nbsp;&lt;/div&gt;&lt;div&gt;vendor?&lt;/div&gt;" style="rhombus;whiteSpace=wrap;html=1;rounded=0;shadow=1;labelBackgroundColor=none;strokeWidth=1;fontFamily=Verdana;fontSize=8;align=center;" parent="1" vertex="1">
          <mxGeometry x="290" y="740" width="100" height="60" as="geometry" />
        </mxCell>
        <mxCell id="60e70716793133e9-48" style="edgeStyle=orthogonalEdgeStyle;rounded=0;html=1;labelBackgroundColor=none;startSize=5;endArrow=classicThin;endFill=1;endSize=5;jettySize=auto;orthogonalLoop=1;strokeWidth=1;fontFamily=Verdana;fontSize=8" parent="1" source="60e70716793133e9-18" target="60e70716793133e9-20" edge="1">
          <mxGeometry relative="1" as="geometry" />
        </mxCell>
        <mxCell id="60e70716793133e9-18" value="Add or adjust vendor costs" style="whiteSpace=wrap;html=1;rounded=0;shadow=1;labelBackgroundColor=none;strokeWidth=1;fontFamily=Verdana;fontSize=8;align=center;" parent="1" vertex="1">
          <mxGeometry x="450" y="750" width="120" height="40" as="geometry" />
        </mxCell>
        <mxCell id="60e70716793133e9-52" style="edgeStyle=orthogonalEdgeStyle;rounded=0;html=1;labelBackgroundColor=none;startSize=5;endArrow=classicThin;endFill=1;endSize=5;jettySize=auto;orthogonalLoop=1;strokeWidth=1;fontFamily=Verdana;fontSize=8" parent="1" source="60e70716793133e9-19" target="60e70716793133e9-21" edge="1">
          <mxGeometry relative="1" as="geometry" />
        </mxCell>
        <mxCell id="60e70716793133e9-19" value="Perform work&amp;nbsp;&lt;div&gt;order step&lt;/div&gt;" style="shape=trapezoid;whiteSpace=wrap;html=1;rounded=0;shadow=1;labelBackgroundColor=none;strokeWidth=1;fontFamily=Verdana;fontSize=8;align=center;flipV=1;" parent="1" vertex="1">
          <mxGeometry x="280" y="840" width="120" height="60" as="geometry" />
        </mxCell>
        <mxCell id="60e70716793133e9-49" style="edgeStyle=orthogonalEdgeStyle;rounded=0;html=1;labelBackgroundColor=none;startSize=5;endArrow=classicThin;endFill=1;endSize=5;jettySize=auto;orthogonalLoop=1;strokeWidth=1;fontFamily=Verdana;fontSize=8" parent="1" source="60e70716793133e9-20" target="60e70716793133e9-22" edge="1">
          <mxGeometry relative="1" as="geometry" />
        </mxCell>
        <mxCell id="60e70716793133e9-53" style="edgeStyle=orthogonalEdgeStyle;rounded=0;html=1;labelBackgroundColor=none;startSize=5;endArrow=classicThin;endFill=1;endSize=5;jettySize=auto;orthogonalLoop=1;strokeWidth=1;fontFamily=Verdana;fontSize=8" parent="1" source="60e70716793133e9-20" target="60e70716793133e9-27" edge="1">
          <mxGeometry relative="1" as="geometry">
            <Array as="points">
              <mxPoint x="510" y="920" />
              <mxPoint x="680" y="920" />
            </Array>
          </mxGeometry>
        </mxCell>
        <mxCell id="60e70716793133e9-20" value="Ship materials&amp;nbsp;&lt;div&gt;to vendor&lt;/div&gt;" style="rounded=1;whiteSpace=wrap;html=1;shadow=1;labelBackgroundColor=none;strokeWidth=1;fontFamily=Verdana;fontSize=8;align=center;" parent="1" vertex="1">
          <mxGeometry x="450" y="850" width="120" height="40" as="geometry" />
        </mxCell>
        <mxCell id="60e70716793133e9-51" value="Yes" style="edgeStyle=orthogonalEdgeStyle;rounded=0;html=1;labelBackgroundColor=none;startSize=5;endArrow=classicThin;endFill=1;endSize=5;jettySize=auto;orthogonalLoop=1;strokeWidth=1;fontFamily=Verdana;fontSize=8" parent="1" source="60e70716793133e9-21" target="60e70716793133e9-17" edge="1">
          <mxGeometry x="-0.6924" y="-20" relative="1" as="geometry">
            <Array as="points">
              <mxPoint x="260" y="969.9999999999998" />
              <mxPoint x="260" y="770" />
            </Array>
            <mxPoint as="offset" />
          </mxGeometry>
        </mxCell>
        <mxCell id="60e70716793133e9-54" value="No" style="edgeStyle=orthogonalEdgeStyle;rounded=0;html=1;labelBackgroundColor=none;startSize=5;endArrow=classicThin;endFill=1;endSize=5;jettySize=auto;orthogonalLoop=1;strokeWidth=1;fontFamily=Verdana;fontSize=8" parent="1" source="60e70716793133e9-21" target="60e70716793133e9-23" edge="1">
          <mxGeometry x="-1" y="-10" relative="1" as="geometry">
            <mxPoint as="offset" />
          </mxGeometry>
        </mxCell>
        <mxCell id="60e70716793133e9-21" value="Additional&amp;nbsp;&lt;div&gt;processing&amp;nbsp;&lt;/div&gt;&lt;div&gt;required?&lt;/div&gt;" style="rhombus;whiteSpace=wrap;html=1;rounded=0;shadow=1;labelBackgroundColor=none;strokeWidth=1;fontFamily=Verdana;fontSize=8;align=center;" parent="1" vertex="1">
          <mxGeometry x="290" y="940" width="100" height="60" as="geometry" />
        </mxCell>
        <mxCell id="60e70716793133e9-58" style="edgeStyle=orthogonalEdgeStyle;rounded=0;html=1;labelBackgroundColor=none;startSize=5;endArrow=classicThin;endFill=1;endSize=5;jettySize=auto;orthogonalLoop=1;strokeWidth=1;fontFamily=Verdana;fontSize=8" parent="1" source="60e70716793133e9-22" target="60e70716793133e9-24" edge="1">
          <mxGeometry relative="1" as="geometry" />
        </mxCell>
        <mxCell id="60e70716793133e9-22" value="Perform work&amp;nbsp;&lt;div&gt;order step&lt;/div&gt;" style="shape=trapezoid;whiteSpace=wrap;html=1;rounded=0;shadow=1;labelBackgroundColor=none;strokeWidth=1;fontFamily=Verdana;fontSize=8;align=center;flipV=1;" parent="1" vertex="1">
          <mxGeometry x="450" y="940" width="120" height="60" as="geometry" />
        </mxCell>
        <mxCell id="60e70716793133e9-55" style="edgeStyle=orthogonalEdgeStyle;rounded=0;html=1;labelBackgroundColor=none;startSize=5;endArrow=classicThin;endFill=1;endSize=5;jettySize=auto;orthogonalLoop=1;strokeWidth=1;fontFamily=Verdana;fontSize=8" parent="1" source="60e70716793133e9-23" target="60e70716793133e9-25" edge="1">
          <mxGeometry relative="1" as="geometry" />
        </mxCell>
        <mxCell id="60e70716793133e9-23" value="Receive info stock" style="rounded=1;whiteSpace=wrap;html=1;shadow=1;labelBackgroundColor=none;strokeWidth=1;fontFamily=Verdana;fontSize=8;align=center;" parent="1" vertex="1">
          <mxGeometry x="280" y="1040" width="120" height="40" as="geometry" />
        </mxCell>
        <mxCell id="60e70716793133e9-59" style="edgeStyle=orthogonalEdgeStyle;rounded=0;html=1;labelBackgroundColor=none;startSize=5;endArrow=classicThin;endFill=1;endSize=5;jettySize=auto;orthogonalLoop=1;strokeWidth=1;fontFamily=Verdana;fontSize=8" parent="1" source="60e70716793133e9-24" target="60e70716793133e9-26" edge="1">
          <mxGeometry relative="1" as="geometry" />
        </mxCell>
        <mxCell id="60e70716793133e9-24" value="Receive product&amp;nbsp;&lt;div&gt;from vendor&lt;/div&gt;" style="rounded=1;whiteSpace=wrap;html=1;shadow=1;labelBackgroundColor=none;strokeWidth=1;fontFamily=Verdana;fontSize=8;align=center;" parent="1" vertex="1">
          <mxGeometry x="450" y="1040" width="120" height="40" as="geometry" />
        </mxCell>
        <mxCell id="60e70716793133e9-56" style="edgeStyle=orthogonalEdgeStyle;rounded=0;html=1;labelBackgroundColor=none;startSize=5;endArrow=classicThin;endFill=1;endSize=5;jettySize=auto;orthogonalLoop=1;strokeWidth=1;fontFamily=Verdana;fontSize=8" parent="1" source="60e70716793133e9-25" target="60e70716793133e9-28" edge="1">
          <mxGeometry relative="1" as="geometry" />
        </mxCell>
        <mxCell id="60e70716793133e9-25" value="Ship product on order if needed" style="rounded=1;whiteSpace=wrap;html=1;shadow=1;labelBackgroundColor=none;strokeWidth=1;fontFamily=Verdana;fontSize=8;align=center;" parent="1" vertex="1">
          <mxGeometry x="280" y="1120" width="120" height="40" as="geometry" />
        </mxCell>
        <mxCell id="60e70716793133e9-60" value="No" style="edgeStyle=orthogonalEdgeStyle;rounded=0;html=1;labelBackgroundColor=none;startSize=5;endArrow=classicThin;endFill=1;endSize=5;jettySize=auto;orthogonalLoop=1;strokeWidth=1;fontFamily=Verdana;fontSize=8" parent="1" source="60e70716793133e9-26" target="60e70716793133e9-29" edge="1">
          <mxGeometry x="0.2" y="14" relative="1" as="geometry">
            <mxPoint x="-24" y="-10" as="offset" />
          </mxGeometry>
        </mxCell>
        <mxCell id="60e70716793133e9-61" value="Yes" style="edgeStyle=orthogonalEdgeStyle;rounded=0;html=1;labelBackgroundColor=none;startSize=5;endArrow=classicThin;endFill=1;endSize=5;jettySize=auto;orthogonalLoop=1;strokeWidth=1;fontFamily=Verdana;fontSize=8" parent="1" source="60e70716793133e9-26" target="60e70716793133e9-27" edge="1">
          <mxGeometry x="-0.6667" y="10" relative="1" as="geometry">
            <mxPoint as="offset" />
          </mxGeometry>
        </mxCell>
        <mxCell id="60e70716793133e9-26" value="Only partial&amp;nbsp;&lt;div&gt;quality&amp;nbsp;&lt;/div&gt;&lt;div&gt;received?&lt;/div&gt;" style="rhombus;whiteSpace=wrap;html=1;rounded=0;shadow=1;labelBackgroundColor=none;strokeWidth=1;fontFamily=Verdana;fontSize=8;align=center;" parent="1" vertex="1">
          <mxGeometry x="460" y="1110" width="100" height="60" as="geometry" />
        </mxCell>
        <mxCell id="60e70716793133e9-27" value="Create work&amp;nbsp;&lt;div&gt;order backorder&lt;/div&gt;" style="whiteSpace=wrap;html=1;rounded=0;shadow=1;labelBackgroundColor=none;strokeWidth=1;fontFamily=Verdana;fontSize=8;align=center;" parent="1" vertex="1">
          <mxGeometry x="620" y="1120" width="120" height="40" as="geometry" />
        </mxCell>
        <mxCell id="60e70716793133e9-57" style="edgeStyle=orthogonalEdgeStyle;rounded=0;html=1;labelBackgroundColor=none;startSize=5;endArrow=classicThin;endFill=1;endSize=5;jettySize=auto;orthogonalLoop=1;strokeWidth=1;fontFamily=Verdana;fontSize=8" parent="1" source="60e70716793133e9-28" target="60e70716793133e9-30" edge="1">
          <mxGeometry relative="1" as="geometry" />
        </mxCell>
        <mxCell id="60e70716793133e9-28" value="Change status to&lt;div&gt;Complete&lt;/div&gt;" style="whiteSpace=wrap;html=1;rounded=0;shadow=1;labelBackgroundColor=none;strokeWidth=1;fontFamily=Verdana;fontSize=8;align=center;" parent="1" vertex="1">
          <mxGeometry x="280" y="1200" width="120" height="40" as="geometry" />
        </mxCell>
        <mxCell id="60e70716793133e9-62" style="edgeStyle=orthogonalEdgeStyle;rounded=0;html=1;labelBackgroundColor=none;startSize=5;endArrow=classicThin;endFill=1;endSize=5;jettySize=auto;orthogonalLoop=1;strokeWidth=1;fontFamily=Verdana;fontSize=8" parent="1" source="60e70716793133e9-29" target="60e70716793133e9-21" edge="1">
          <mxGeometry relative="1" as="geometry">
            <Array as="points">
              <mxPoint x="430" y="1220" />
              <mxPoint x="430" y="920" />
              <mxPoint x="340" y="920" />
            </Array>
          </mxGeometry>
        </mxCell>
        <mxCell id="60e70716793133e9-29" value="Pay vendor invoice" style="rounded=1;whiteSpace=wrap;html=1;shadow=1;labelBackgroundColor=none;strokeWidth=1;fontFamily=Verdana;fontSize=8;align=center;" parent="1" vertex="1">
          <mxGeometry x="450" y="1200" width="120" height="40" as="geometry" />
        </mxCell>
        <mxCell id="60e70716793133e9-30" value="End" style="strokeWidth=1;html=1;shape=mxgraph.flowchart.terminator;whiteSpace=wrap;rounded=0;shadow=1;labelBackgroundColor=none;fontFamily=Verdana;fontSize=8;align=center;" parent="1" vertex="1">
          <mxGeometry x="310" y="1290" width="60" height="30" as="geometry" />
        </mxCell>
        <mxCell id="CNigAQ3NZ5j290TzRcqJ-5" value="Nē" style="edgeStyle=orthogonalEdgeStyle;rounded=0;html=1;labelBackgroundColor=none;startSize=5;endArrow=classicThin;endFill=1;endSize=5;jettySize=auto;orthogonalLoop=1;strokeWidth=1;fontFamily=Times New Roman;fontSize=11;align=center;horizontal=1;verticalAlign=middle;" edge="1" parent="1" source="CNigAQ3NZ5j290TzRcqJ-7">
          <mxGeometry x="-0.5556" y="10" relative="1" as="geometry">
            <mxPoint as="offset" />
            <mxPoint x="1662.0000000000002" y="257" as="targetPoint" />
          </mxGeometry>
        </mxCell>
        <mxCell id="CNigAQ3NZ5j290TzRcqJ-6" value="Jā" style="edgeStyle=orthogonalEdgeStyle;rounded=0;html=1;labelBackgroundColor=none;startSize=5;endArrow=classicThin;endFill=1;endSize=5;jettySize=auto;orthogonalLoop=1;strokeWidth=1;fontFamily=Times New Roman;fontSize=11;align=center;horizontal=1;verticalAlign=middle;" edge="1" parent="1" source="CNigAQ3NZ5j290TzRcqJ-7">
          <mxGeometry x="-0.5" y="10" relative="1" as="geometry">
            <mxPoint as="offset" />
            <mxPoint x="1522" y="327" as="targetPoint" />
          </mxGeometry>
        </mxCell>
        <mxCell id="CNigAQ3NZ5j290TzRcqJ-7" value="Frequently&lt;div style=&quot;font-size: 11px;&quot;&gt;performed&lt;/div&gt;&lt;div style=&quot;font-size: 11px;&quot;&gt;process?&lt;/div&gt;" style="rhombus;whiteSpace=wrap;html=1;rounded=0;shadow=1;labelBackgroundColor=none;strokeWidth=1;fontFamily=Times New Roman;fontSize=11;align=center;horizontal=1;verticalAlign=middle;" vertex="1" parent="1">
          <mxGeometry x="1472" y="227" width="100" height="60" as="geometry" />
        </mxCell>
        <mxCell id="CNigAQ3NZ5j290TzRcqJ-11" style="edgeStyle=orthogonalEdgeStyle;rounded=0;html=1;labelBackgroundColor=none;startSize=5;endArrow=classicThin;endFill=1;endSize=5;jettySize=auto;orthogonalLoop=1;strokeWidth=1;fontFamily=Times New Roman;fontSize=11;align=center;horizontal=1;verticalAlign=middle;" edge="1" parent="1" source="CNigAQ3NZ5j290TzRcqJ-12" target="CNigAQ3NZ5j290TzRcqJ-15">
          <mxGeometry relative="1" as="geometry" />
        </mxCell>
        <mxCell id="CNigAQ3NZ5j290TzRcqJ-12" value="Veicam augu reģistrāciju" style="rounded=0;whiteSpace=wrap;html=1;shadow=1;labelBackgroundColor=none;strokeWidth=1;fontFamily=Times New Roman;fontSize=11;align=center;horizontal=1;verticalAlign=middle;" vertex="1" parent="1">
          <mxGeometry x="1462" y="144" width="120" height="60" as="geometry" />
        </mxCell>
        <mxCell id="CNigAQ3NZ5j290TzRcqJ-13" value="" style="edgeStyle=orthogonalEdgeStyle;rounded=0;html=1;labelBackgroundColor=none;startSize=5;endArrow=classicThin;endFill=1;endSize=5;jettySize=auto;orthogonalLoop=1;strokeWidth=1;fontFamily=Times New Roman;fontSize=11;align=center;horizontal=1;verticalAlign=middle;" edge="1" parent="1" source="CNigAQ3NZ5j290TzRcqJ-15">
          <mxGeometry x="-0.7778" y="10" relative="1" as="geometry">
            <mxPoint as="offset" />
            <mxPoint x="1662.0000000000002" y="257" as="targetPoint" />
          </mxGeometry>
        </mxCell>
        <mxCell id="CNigAQ3NZ5j290TzRcqJ-14" value="" style="edgeStyle=orthogonalEdgeStyle;rounded=0;html=1;labelBackgroundColor=none;startSize=5;endArrow=classicThin;endFill=1;endSize=5;jettySize=auto;orthogonalLoop=1;strokeWidth=1;fontFamily=Times New Roman;fontSize=11;align=center;horizontal=1;verticalAlign=middle;" edge="1" parent="1" source="CNigAQ3NZ5j290TzRcqJ-15" target="CNigAQ3NZ5j290TzRcqJ-16">
          <mxGeometry x="-0.5" y="10" relative="1" as="geometry">
            <mxPoint as="offset" />
          </mxGeometry>
        </mxCell>
        <mxCell id="CNigAQ3NZ5j290TzRcqJ-15" value="Augam ir piešķirts numurs" style="rhombus;whiteSpace=wrap;html=1;rounded=0;shadow=1;labelBackgroundColor=none;strokeWidth=1;fontFamily=Times New Roman;fontSize=11;align=center;horizontal=1;verticalAlign=middle;" vertex="1" parent="1">
          <mxGeometry x="1472" y="227" width="100" height="60" as="geometry" />
        </mxCell>
        <mxCell id="CNigAQ3NZ5j290TzRcqJ-21" value="" style="edgeStyle=orthogonalEdgeStyle;rounded=0;orthogonalLoop=1;jettySize=auto;html=1;fontFamily=Times New Roman;align=center;horizontal=1;verticalAlign=middle;fontSize=11;" edge="1" parent="1" source="CNigAQ3NZ5j290TzRcqJ-16" target="CNigAQ3NZ5j290TzRcqJ-20">
          <mxGeometry relative="1" as="geometry" />
        </mxCell>
        <mxCell id="CNigAQ3NZ5j290TzRcqJ-16" value="Atzīmējam galotnes vietu" style="shape=process;whiteSpace=wrap;html=1;rounded=0;shadow=1;labelBackgroundColor=none;strokeWidth=1;fontFamily=Times New Roman;fontSize=11;align=center;horizontal=1;verticalAlign=middle;" vertex="1" parent="1">
          <mxGeometry x="1462" y="313" width="120" height="40" as="geometry" />
        </mxCell>
        <mxCell id="CNigAQ3NZ5j290TzRcqJ-19" style="edgeStyle=orthogonalEdgeStyle;rounded=0;orthogonalLoop=1;jettySize=auto;html=1;exitX=0.5;exitY=1;exitDx=0;exitDy=0;entryX=1;entryY=0.5;entryDx=0;entryDy=0;fontFamily=Times New Roman;align=center;horizontal=1;verticalAlign=middle;fontSize=11;" edge="1" parent="1" source="CNigAQ3NZ5j290TzRcqJ-17" target="CNigAQ3NZ5j290TzRcqJ-16">
          <mxGeometry relative="1" as="geometry" />
        </mxCell>
        <mxCell id="CNigAQ3NZ5j290TzRcqJ-17" value="Pieškiram augam numuru" style="whiteSpace=wrap;html=1;rounded=0;shadow=1;labelBackgroundColor=none;strokeWidth=1;fontFamily=Times New Roman;fontSize=11;align=center;horizontal=1;verticalAlign=middle;" vertex="1" parent="1">
          <mxGeometry x="1642" y="237" width="120" height="40" as="geometry" />
        </mxCell>
        <mxCell id="CNigAQ3NZ5j290TzRcqJ-25" style="edgeStyle=orthogonalEdgeStyle;rounded=0;orthogonalLoop=1;jettySize=auto;html=1;exitX=1;exitY=0.5;exitDx=0;exitDy=0;entryX=0;entryY=0.5;entryDx=0;entryDy=0;fontFamily=Times New Roman;align=center;horizontal=1;verticalAlign=middle;fontSize=11;" edge="1" parent="1" source="CNigAQ3NZ5j290TzRcqJ-20" target="CNigAQ3NZ5j290TzRcqJ-24">
          <mxGeometry relative="1" as="geometry" />
        </mxCell>
        <mxCell id="CNigAQ3NZ5j290TzRcqJ-27" value="" style="edgeStyle=orthogonalEdgeStyle;rounded=0;orthogonalLoop=1;jettySize=auto;html=1;fontFamily=Times New Roman;fontSize=11;" edge="1" parent="1" source="CNigAQ3NZ5j290TzRcqJ-20" target="CNigAQ3NZ5j290TzRcqJ-26">
          <mxGeometry relative="1" as="geometry" />
        </mxCell>
        <mxCell id="CNigAQ3NZ5j290TzRcqJ-20" value="Nomēram iknedēļas pieaugumu" style="shape=process;whiteSpace=wrap;html=1;fontSize=11;fontFamily=Times New Roman;rounded=0;shadow=1;labelBackgroundColor=none;strokeWidth=1;align=center;horizontal=1;verticalAlign=middle;" vertex="1" parent="1">
          <mxGeometry x="1462" y="379" width="120" height="40" as="geometry" />
        </mxCell>
        <mxCell id="CNigAQ3NZ5j290TzRcqJ-24" value="Pierakstām papīra nesējā pieaugumu" style="shape=document;whiteSpace=wrap;html=1;boundedLbl=1;fontFamily=Times New Roman;align=center;horizontal=1;verticalAlign=middle;fontSize=11;" vertex="1" parent="1">
          <mxGeometry x="1642" y="369" width="120" height="60" as="geometry" />
        </mxCell>
        <mxCell id="CNigAQ3NZ5j290TzRcqJ-26" value="Izveidojies jauns ķekars" style="rhombus;whiteSpace=wrap;html=1;fontSize=11;fontFamily=Times New Roman;rounded=0;shadow=1;labelBackgroundColor=none;strokeWidth=1;" vertex="1" parent="1">
          <mxGeometry x="1452" y="441" width="140" height="80" as="geometry" />
        </mxCell>
        <mxCell id="CNigAQ3NZ5j290TzRcqJ-28" value="Jā" style="edgeStyle=orthogonalEdgeStyle;rounded=0;html=1;labelBackgroundColor=none;startSize=5;endArrow=classicThin;endFill=1;endSize=5;jettySize=auto;orthogonalLoop=1;strokeWidth=1;fontFamily=Times New Roman;fontSize=11;align=center;horizontal=1;verticalAlign=middle;exitX=1;exitY=0.5;exitDx=0;exitDy=0;entryX=0;entryY=0.5;entryDx=0;entryDy=0;" edge="1" parent="1" source="CNigAQ3NZ5j290TzRcqJ-26" target="CNigAQ3NZ5j290TzRcqJ-30">
          <mxGeometry x="-0.5556" y="10" relative="1" as="geometry">
            <mxPoint as="offset" />
            <mxPoint x="1644" y="480.66" as="targetPoint" />
            <mxPoint x="1594" y="480.66" as="sourcePoint" />
          </mxGeometry>
        </mxCell>
        <mxCell id="CNigAQ3NZ5j290TzRcqJ-37" value="" style="edgeStyle=orthogonalEdgeStyle;rounded=0;orthogonalLoop=1;jettySize=auto;html=1;fontFamily=Times New Roman;fontSize=11;" edge="1" parent="1" source="CNigAQ3NZ5j290TzRcqJ-30" target="CNigAQ3NZ5j290TzRcqJ-33">
          <mxGeometry relative="1" as="geometry" />
        </mxCell>
        <mxCell id="CNigAQ3NZ5j290TzRcqJ-30" value="Pieškiram ķekaram numuru" style="shape=process;whiteSpace=wrap;html=1;rounded=0;shadow=1;labelBackgroundColor=none;strokeWidth=1;fontFamily=Times New Roman;fontSize=11;align=center;horizontal=1;verticalAlign=middle;" vertex="1" parent="1">
          <mxGeometry x="1642" y="460" width="120" height="40" as="geometry" />
        </mxCell>
        <mxCell id="CNigAQ3NZ5j290TzRcqJ-32" value="Nē" style="edgeStyle=orthogonalEdgeStyle;rounded=0;html=1;labelBackgroundColor=none;startSize=5;endArrow=classicThin;endFill=1;endSize=5;jettySize=auto;orthogonalLoop=1;strokeWidth=1;fontFamily=Times New Roman;fontSize=11;align=center;horizontal=1;verticalAlign=middle;exitX=0.5;exitY=1;exitDx=0;exitDy=0;" edge="1" parent="1" source="CNigAQ3NZ5j290TzRcqJ-26" target="CNigAQ3NZ5j290TzRcqJ-34">
          <mxGeometry x="-0.5" y="10" relative="1" as="geometry">
            <mxPoint as="offset" />
            <mxPoint x="1526" y="531" as="sourcePoint" />
            <mxPoint x="1521.66" y="587" as="targetPoint" />
          </mxGeometry>
        </mxCell>
        <mxCell id="CNigAQ3NZ5j290TzRcqJ-35" style="edgeStyle=orthogonalEdgeStyle;rounded=0;orthogonalLoop=1;jettySize=auto;html=1;entryX=0.5;entryY=0;entryDx=0;entryDy=0;fontFamily=Times New Roman;fontSize=11;" edge="1" parent="1" source="CNigAQ3NZ5j290TzRcqJ-33" target="CNigAQ3NZ5j290TzRcqJ-34">
          <mxGeometry relative="1" as="geometry" />
        </mxCell>
        <mxCell id="CNigAQ3NZ5j290TzRcqJ-33" value="Pierakstām papīra nesējā&amp;nbsp; informāciju par ķekaru" style="shape=document;whiteSpace=wrap;html=1;boundedLbl=1;fontFamily=Times New Roman;align=center;horizontal=1;verticalAlign=middle;fontSize=11;" vertex="1" parent="1">
          <mxGeometry x="1642" y="520" width="120" height="60" as="geometry" />
        </mxCell>
        <mxCell id="CNigAQ3NZ5j290TzRcqJ-41" value="" style="edgeStyle=orthogonalEdgeStyle;rounded=0;orthogonalLoop=1;jettySize=auto;html=1;fontFamily=Times New Roman;fontSize=11;" edge="1" parent="1" source="CNigAQ3NZ5j290TzRcqJ-34" target="CNigAQ3NZ5j290TzRcqJ-40">
          <mxGeometry relative="1" as="geometry" />
        </mxCell>
        <mxCell id="CNigAQ3NZ5j290TzRcqJ-34" value="Saskaitām jaunas lapas nedēļā" style="shape=process;whiteSpace=wrap;html=1;fontSize=11;fontFamily=Times New Roman;rounded=0;shadow=1;labelBackgroundColor=none;strokeWidth=1;align=center;horizontal=1;verticalAlign=middle;" vertex="1" parent="1">
          <mxGeometry x="1462" y="600" width="120" height="40" as="geometry" />
        </mxCell>
        <mxCell id="CNigAQ3NZ5j290TzRcqJ-38" style="edgeStyle=orthogonalEdgeStyle;rounded=0;orthogonalLoop=1;jettySize=auto;html=1;entryX=0;entryY=0.5;entryDx=0;entryDy=0;fontFamily=Times New Roman;align=center;horizontal=1;verticalAlign=middle;fontSize=11;exitX=1;exitY=0.5;exitDx=0;exitDy=0;" edge="1" parent="1" target="CNigAQ3NZ5j290TzRcqJ-39" source="CNigAQ3NZ5j290TzRcqJ-34">
          <mxGeometry relative="1" as="geometry">
            <mxPoint x="1582" y="667" as="sourcePoint" />
          </mxGeometry>
        </mxCell>
        <mxCell id="CNigAQ3NZ5j290TzRcqJ-39" value="Pierakstām papīra nesējā informāciju par jaunām lapām nedēļā" style="shape=document;whiteSpace=wrap;html=1;boundedLbl=1;fontFamily=Times New Roman;align=center;horizontal=1;verticalAlign=middle;fontSize=11;" vertex="1" parent="1">
          <mxGeometry x="1639" y="590" width="120" height="60" as="geometry" />
        </mxCell>
        <mxCell id="CNigAQ3NZ5j290TzRcqJ-81" value="" style="edgeStyle=orthogonalEdgeStyle;rounded=0;orthogonalLoop=1;jettySize=auto;html=1;fontFamily=Times New Roman;fontSize=11;" edge="1" parent="1" source="CNigAQ3NZ5j290TzRcqJ-40" target="CNigAQ3NZ5j290TzRcqJ-80">
          <mxGeometry relative="1" as="geometry" />
        </mxCell>
        <mxCell id="CNigAQ3NZ5j290TzRcqJ-40" value="Ievadām augu reģistrācijas datus datubāzē" style="shape=process;whiteSpace=wrap;html=1;backgroundOutline=1;fontSize=11;fontFamily=Times New Roman;rounded=0;shadow=1;labelBackgroundColor=none;strokeWidth=1;" vertex="1" parent="1">
          <mxGeometry x="1462" y="670" width="120" height="60" as="geometry" />
        </mxCell>
        <mxCell id="CNigAQ3NZ5j290TzRcqJ-43" value="Jā" style="edgeStyle=orthogonalEdgeStyle;rounded=0;html=1;labelBackgroundColor=none;startSize=5;endArrow=classicThin;endFill=1;endSize=5;jettySize=auto;orthogonalLoop=1;strokeWidth=1;fontFamily=Times New Roman;fontSize=11;align=center;horizontal=1;verticalAlign=middle;" edge="1" parent="1" target="CNigAQ3NZ5j290TzRcqJ-45">
          <mxGeometry x="-0.5" y="10" relative="1" as="geometry">
            <mxPoint as="offset" />
            <mxPoint x="2493" y="304" as="sourcePoint" />
          </mxGeometry>
        </mxCell>
        <mxCell id="CNigAQ3NZ5j290TzRcqJ-45" value="Create a work order" style="whiteSpace=wrap;html=1;rounded=0;shadow=1;labelBackgroundColor=none;strokeWidth=1;fontFamily=Times New Roman;fontSize=11;align=center;horizontal=1;verticalAlign=middle;" vertex="1" parent="1">
          <mxGeometry x="2433" y="344" width="120" height="40" as="geometry" />
        </mxCell>
        <mxCell id="CNigAQ3NZ5j290TzRcqJ-46" style="edgeStyle=orthogonalEdgeStyle;rounded=0;html=1;labelBackgroundColor=none;startSize=5;endArrow=classicThin;endFill=1;endSize=5;jettySize=auto;orthogonalLoop=1;strokeWidth=1;fontFamily=Times New Roman;fontSize=11;align=center;horizontal=1;verticalAlign=middle;" edge="1" parent="1" source="CNigAQ3NZ5j290TzRcqJ-47" target="CNigAQ3NZ5j290TzRcqJ-50">
          <mxGeometry relative="1" as="geometry" />
        </mxCell>
        <mxCell id="CNigAQ3NZ5j290TzRcqJ-47" value="Veicam augu reģistrāciju" style="rounded=0;whiteSpace=wrap;html=1;shadow=1;labelBackgroundColor=none;strokeWidth=1;fontFamily=Times New Roman;fontSize=11;align=center;horizontal=1;verticalAlign=middle;" vertex="1" parent="1">
          <mxGeometry x="2433" y="134" width="120" height="60" as="geometry" />
        </mxCell>
        <mxCell id="CNigAQ3NZ5j290TzRcqJ-49" value="" style="edgeStyle=orthogonalEdgeStyle;rounded=0;html=1;labelBackgroundColor=none;startSize=5;endArrow=classicThin;endFill=1;endSize=5;jettySize=auto;orthogonalLoop=1;strokeWidth=1;fontFamily=Times New Roman;fontSize=11;align=center;horizontal=1;verticalAlign=middle;" edge="1" parent="1" source="CNigAQ3NZ5j290TzRcqJ-50" target="CNigAQ3NZ5j290TzRcqJ-52">
          <mxGeometry x="-0.5" y="10" relative="1" as="geometry">
            <mxPoint as="offset" />
          </mxGeometry>
        </mxCell>
        <mxCell id="CNigAQ3NZ5j290TzRcqJ-72" value="Nē" style="edgeStyle=orthogonalEdgeStyle;rounded=0;orthogonalLoop=1;jettySize=auto;html=1;fontFamily=Times New Roman;fontSize=11;" edge="1" parent="1" source="CNigAQ3NZ5j290TzRcqJ-50" target="CNigAQ3NZ5j290TzRcqJ-54">
          <mxGeometry relative="1" as="geometry" />
        </mxCell>
        <mxCell id="CNigAQ3NZ5j290TzRcqJ-50" value="Augam ir piešķirts QR kods un numurs?" style="rhombus;whiteSpace=wrap;html=1;rounded=0;shadow=1;labelBackgroundColor=none;strokeWidth=1;fontFamily=Times New Roman;fontSize=11;align=center;horizontal=1;verticalAlign=middle;" vertex="1" parent="1">
          <mxGeometry x="2398" y="216" width="190" height="88" as="geometry" />
        </mxCell>
        <mxCell id="CNigAQ3NZ5j290TzRcqJ-51" value="" style="edgeStyle=orthogonalEdgeStyle;rounded=0;orthogonalLoop=1;jettySize=auto;html=1;fontFamily=Times New Roman;align=center;horizontal=1;verticalAlign=middle;fontSize=11;" edge="1" parent="1" source="CNigAQ3NZ5j290TzRcqJ-52" target="CNigAQ3NZ5j290TzRcqJ-57">
          <mxGeometry relative="1" as="geometry" />
        </mxCell>
        <mxCell id="CNigAQ3NZ5j290TzRcqJ-52" value="Atzīmējam galotnes vietu" style="shape=process;whiteSpace=wrap;html=1;rounded=0;shadow=1;labelBackgroundColor=none;strokeWidth=1;fontFamily=Times New Roman;fontSize=11;align=center;horizontal=1;verticalAlign=middle;" vertex="1" parent="1">
          <mxGeometry x="2433" y="344" width="120" height="40" as="geometry" />
        </mxCell>
        <mxCell id="CNigAQ3NZ5j290TzRcqJ-74" value="" style="edgeStyle=orthogonalEdgeStyle;rounded=0;orthogonalLoop=1;jettySize=auto;html=1;fontFamily=Times New Roman;fontSize=11;" edge="1" parent="1" source="CNigAQ3NZ5j290TzRcqJ-54" target="CNigAQ3NZ5j290TzRcqJ-73">
          <mxGeometry relative="1" as="geometry" />
        </mxCell>
        <mxCell id="CNigAQ3NZ5j290TzRcqJ-54" value="Pieškiram augam numuru, piesaistām auga nr QR kodam" style="whiteSpace=wrap;html=1;rounded=0;shadow=1;labelBackgroundColor=none;strokeWidth=1;fontFamily=Times New Roman;fontSize=11;align=center;horizontal=1;verticalAlign=middle;" vertex="1" parent="1">
          <mxGeometry x="2616" y="240" width="120" height="40" as="geometry" />
        </mxCell>
        <mxCell id="CNigAQ3NZ5j290TzRcqJ-55" style="edgeStyle=orthogonalEdgeStyle;rounded=0;orthogonalLoop=1;jettySize=auto;html=1;exitX=1;exitY=0.5;exitDx=0;exitDy=0;entryX=0;entryY=0.5;entryDx=0;entryDy=0;fontFamily=Times New Roman;align=center;horizontal=1;verticalAlign=middle;fontSize=11;" edge="1" parent="1" source="CNigAQ3NZ5j290TzRcqJ-57">
          <mxGeometry relative="1" as="geometry">
            <mxPoint x="2613" y="434" as="targetPoint" />
          </mxGeometry>
        </mxCell>
        <mxCell id="CNigAQ3NZ5j290TzRcqJ-56" value="" style="edgeStyle=orthogonalEdgeStyle;rounded=0;orthogonalLoop=1;jettySize=auto;html=1;fontFamily=Times New Roman;fontSize=11;" edge="1" parent="1" source="CNigAQ3NZ5j290TzRcqJ-57" target="CNigAQ3NZ5j290TzRcqJ-59">
          <mxGeometry relative="1" as="geometry" />
        </mxCell>
        <mxCell id="CNigAQ3NZ5j290TzRcqJ-57" value="Nomēram iknedēļas pieaugumu" style="shape=process;whiteSpace=wrap;html=1;fontSize=11;fontFamily=Times New Roman;rounded=0;shadow=1;labelBackgroundColor=none;strokeWidth=1;align=center;horizontal=1;verticalAlign=middle;" vertex="1" parent="1">
          <mxGeometry x="2433" y="414" width="120" height="40" as="geometry" />
        </mxCell>
        <mxCell id="CNigAQ3NZ5j290TzRcqJ-59" value="Izveidojies jauns ķekars" style="rhombus;whiteSpace=wrap;html=1;fontSize=11;fontFamily=Times New Roman;rounded=0;shadow=1;labelBackgroundColor=none;strokeWidth=1;" vertex="1" parent="1">
          <mxGeometry x="2423" y="484" width="140" height="80" as="geometry" />
        </mxCell>
        <mxCell id="CNigAQ3NZ5j290TzRcqJ-60" value="Jā" style="edgeStyle=orthogonalEdgeStyle;rounded=0;html=1;labelBackgroundColor=none;startSize=5;endArrow=classicThin;endFill=1;endSize=5;jettySize=auto;orthogonalLoop=1;strokeWidth=1;fontFamily=Times New Roman;fontSize=11;align=center;horizontal=1;verticalAlign=middle;" edge="1" parent="1">
          <mxGeometry x="-0.5556" y="10" relative="1" as="geometry">
            <mxPoint as="offset" />
            <mxPoint x="2613" y="524" as="targetPoint" />
            <mxPoint x="2563" y="524" as="sourcePoint" />
          </mxGeometry>
        </mxCell>
        <mxCell id="CNigAQ3NZ5j290TzRcqJ-61" value="" style="edgeStyle=orthogonalEdgeStyle;rounded=0;orthogonalLoop=1;jettySize=auto;html=1;fontFamily=Times New Roman;fontSize=11;" edge="1" parent="1" source="CNigAQ3NZ5j290TzRcqJ-62">
          <mxGeometry relative="1" as="geometry">
            <mxPoint x="2673.034482758621" y="584" as="targetPoint" />
          </mxGeometry>
        </mxCell>
        <mxCell id="CNigAQ3NZ5j290TzRcqJ-62" value="Noskenējam brīvi izvēlētu QR kodu, piesaistām to pie auga" style="shape=process;whiteSpace=wrap;html=1;rounded=0;shadow=1;labelBackgroundColor=none;strokeWidth=1;fontFamily=Times New Roman;fontSize=11;align=center;horizontal=1;verticalAlign=middle;" vertex="1" parent="1">
          <mxGeometry x="2613" y="480" width="120" height="81" as="geometry" />
        </mxCell>
        <mxCell id="CNigAQ3NZ5j290TzRcqJ-63" value="Nē" style="edgeStyle=orthogonalEdgeStyle;rounded=0;html=1;labelBackgroundColor=none;startSize=5;endArrow=classicThin;endFill=1;endSize=5;jettySize=auto;orthogonalLoop=1;strokeWidth=1;fontFamily=Times New Roman;fontSize=11;align=center;horizontal=1;verticalAlign=middle;" edge="1" parent="1" target="CNigAQ3NZ5j290TzRcqJ-67">
          <mxGeometry x="-0.5" y="10" relative="1" as="geometry">
            <mxPoint as="offset" />
            <mxPoint x="2492.66" y="564" as="sourcePoint" />
            <mxPoint x="2492.66" y="604" as="targetPoint" />
          </mxGeometry>
        </mxCell>
        <mxCell id="CNigAQ3NZ5j290TzRcqJ-64" style="edgeStyle=orthogonalEdgeStyle;rounded=0;orthogonalLoop=1;jettySize=auto;html=1;entryX=0.5;entryY=0;entryDx=0;entryDy=0;fontFamily=Times New Roman;fontSize=11;" edge="1" parent="1" target="CNigAQ3NZ5j290TzRcqJ-67">
          <mxGeometry relative="1" as="geometry">
            <mxPoint x="2613" y="614" as="sourcePoint" />
          </mxGeometry>
        </mxCell>
        <mxCell id="CNigAQ3NZ5j290TzRcqJ-66" value="" style="edgeStyle=orthogonalEdgeStyle;rounded=0;orthogonalLoop=1;jettySize=auto;html=1;fontFamily=Times New Roman;fontSize=11;" edge="1" parent="1" source="CNigAQ3NZ5j290TzRcqJ-67" target="CNigAQ3NZ5j290TzRcqJ-79">
          <mxGeometry relative="1" as="geometry">
            <mxPoint x="2493" y="774" as="targetPoint" />
          </mxGeometry>
        </mxCell>
        <mxCell id="CNigAQ3NZ5j290TzRcqJ-67" value="Saskaitām jaunas lapas nedēļā" style="shape=process;whiteSpace=wrap;html=1;fontSize=11;fontFamily=Times New Roman;rounded=0;shadow=1;labelBackgroundColor=none;strokeWidth=1;align=center;horizontal=1;verticalAlign=middle;" vertex="1" parent="1">
          <mxGeometry x="2433" y="664" width="120" height="40" as="geometry" />
        </mxCell>
        <mxCell id="CNigAQ3NZ5j290TzRcqJ-68" style="edgeStyle=orthogonalEdgeStyle;rounded=0;orthogonalLoop=1;jettySize=auto;html=1;entryX=0.054;entryY=0.426;entryDx=0;entryDy=0;fontFamily=Times New Roman;align=center;horizontal=1;verticalAlign=middle;fontSize=11;entryPerimeter=0;" edge="1" parent="1" target="CNigAQ3NZ5j290TzRcqJ-78">
          <mxGeometry relative="1" as="geometry">
            <mxPoint x="2553" y="684" as="sourcePoint" />
            <mxPoint x="2613" y="684" as="targetPoint" />
          </mxGeometry>
        </mxCell>
        <mxCell id="CNigAQ3NZ5j290TzRcqJ-75" value="" style="edgeStyle=orthogonalEdgeStyle;rounded=0;orthogonalLoop=1;jettySize=auto;html=1;fontFamily=Times New Roman;fontSize=11;" edge="1" parent="1" source="CNigAQ3NZ5j290TzRcqJ-73" target="CNigAQ3NZ5j290TzRcqJ-52">
          <mxGeometry relative="1" as="geometry" />
        </mxCell>
        <mxCell id="CNigAQ3NZ5j290TzRcqJ-73" value="Datubāzē izveidojam sasaisti QR kodam ar auga Nr" style="shape=process;whiteSpace=wrap;html=1;backgroundOutline=1;fontSize=11;fontFamily=Times New Roman;rounded=0;shadow=1;labelBackgroundColor=none;strokeWidth=1;" vertex="1" parent="1">
          <mxGeometry x="2616" y="334" width="120" height="60" as="geometry" />
        </mxCell>
        <mxCell id="CNigAQ3NZ5j290TzRcqJ-76" value="Noskenējam QR kodu, sadaļā auga pieaugums aizpildām ar mērījumu" style="shape=parallelogram;perimeter=parallelogramPerimeter;whiteSpace=wrap;html=1;fixedSize=1;fontFamily=Times New Roman;fontSize=11;" vertex="1" parent="1">
          <mxGeometry x="2606" y="400" width="132" height="60" as="geometry" />
        </mxCell>
        <mxCell id="CNigAQ3NZ5j290TzRcqJ-77" value="Noskenējam QR kodu, sadaļā Ķekars aizpildām ar datiem par ķekaru" style="shape=parallelogram;perimeter=parallelogramPerimeter;whiteSpace=wrap;html=1;fixedSize=1;fontFamily=Times New Roman;fontSize=11;" vertex="1" parent="1">
          <mxGeometry x="2604" y="584" width="132" height="60" as="geometry" />
        </mxCell>
        <mxCell id="CNigAQ3NZ5j290TzRcqJ-78" value="Noskenējam jebkuru QR kodu uz auga, izvēlamies sadaļu lapas, aizpildām datiem par lapām" style="shape=parallelogram;perimeter=parallelogramPerimeter;whiteSpace=wrap;html=1;fixedSize=1;fontFamily=Times New Roman;fontSize=11;align=center;horizontal=1;verticalAlign=bottom;" vertex="1" parent="1">
          <mxGeometry x="2583" y="657" width="150" height="60" as="geometry" />
        </mxCell>
        <mxCell id="CNigAQ3NZ5j290TzRcqJ-79" value="Beigas" style="ellipse;whiteSpace=wrap;html=1;aspect=fixed;fontFamily=Times New Roman;fontSize=11;" vertex="1" parent="1">
          <mxGeometry x="2453" y="740" width="80" height="80" as="geometry" />
        </mxCell>
        <mxCell id="CNigAQ3NZ5j290TzRcqJ-80" value="Beigas" style="ellipse;whiteSpace=wrap;html=1;aspect=fixed;fontFamily=Times New Roman;fontSize=11;" vertex="1" parent="1">
          <mxGeometry x="1482" y="756" width="80" height="80" as="geometry" />
        </mxCell>
      </root>
    </mxGraphModel>
  </diagram>
</mxfile>
